<svg width="22" height="17" viewBox="0 0 22 17" fill="none" xmlns="http://www.w3.org/2000/svg">
<path d="M12.625 0.365234C8.70494 -0.581277 4.72432 1.68266 3.69141 5.44238C1.61644 5.96914 0.155967 7.77545 0.149414 9.85645C0.141676 12.3119 2.13853 14.3138 4.64551 14.4434L4.88965 14.4502H7.6709V12.8838H4.89062C3.32944 12.8763 2.01728 11.7699 1.79883 10.2939C1.55608 8.65204 2.7423 7.1225 4.46289 6.88672V6.88574C4.76047 6.84725 5.01127 6.65288 5.11426 6.38184L5.14844 6.26172C5.68084 3.66417 8.05272 1.78542 10.8154 1.78809C14.0073 1.79119 16.5822 4.28194 16.5791 7.33887C16.5791 7.77655 16.9462 8.12196 17.3867 8.12207C18.7624 8.12207 19.8681 9.19336 19.8682 10.5029C19.8682 11.8126 18.7624 12.8838 17.3867 12.8838H13.9482V14.4502H17.3867C19.3932 14.4577 21.1159 13.0618 21.4443 11.1465C21.8076 9.02749 20.3481 7.0329 18.1836 6.62891C17.9043 3.6162 15.6744 1.10169 12.625 0.365234Z" fill="#ee9c25" stroke="#ee9c25" stroke-width="0.3"/>
<path d="M11.3096 8.07617C11.0202 7.80316 10.5559 7.80307 10.2666 8.07617V8.07715L7.89062 10.334L7.77637 10.4424L7.89062 10.5508L8.72852 11.3467L8.83203 11.4443L8.93457 11.3467L10.041 10.2949V16.7969H11.5293V10.2939L12.6416 11.3467L12.7451 11.4443L12.8477 11.3467L13.6855 10.5508L13.7998 10.4424L13.6855 10.334L11.3105 8.07715L11.3096 8.07617Z" fill="#ee9c25" stroke="#ee9c25" stroke-width="0.3"/>
</svg>
